/* XPM */
static char * bottom_right_inactive_xpm[] = {
"4 4 3 1",
" 	c None",
".	c #FFFFFF",
"+	c #000000",
" ..+",
"...+",
"...+",
"++++"};
