/* XPM */
static char * top_left_active_xpm[] = {
"2 4 3 1",
" 	c None",
".	c #000000",
"+	c #0000FF",
"..",
".+",
".+",
".+"};
